<svg xmlns="http://www.w3.org/2000/svg" xmlns:xlink="http://www.w3.org/1999/xlink" version="1.1" width="1000" height="1000" viewBox="0 0 1000 1000" xml:space="preserve">
<desc>Created with Fabric.js 3.5.0</desc>
<defs>
</defs>
<rect x="0" y="0" width="100%" height="100%" fill="transparent"/>
<g transform="matrix(-1.8822 0 0 1.8822 499.9974 499.9942)" id="122799">
<path style="stroke: none; stroke-width: 1; stroke-dasharray: none; stroke-linecap: butt; stroke-dashoffset: 0; stroke-linejoin: miter; stroke-miterlimit: 4; is-custom-font: none; font-file-url: none; fill: rgb(68,83,60); fill-rule: nonzero; opacity: 1;" vector-effect="non-scaling-stroke" transform=" translate(-250.0002, -251.5)" d="M 193 437 c -32 -30 -54 -59 -50 -63 c 4 -4 28 12 52 36 l 45 44 l 0 -222 c 0 -141 4 -222 10 -222 c 6 0 10 81 10 222 l 0 222 l 45 -44 c 24 -24 48 -40 52 -37 c 4 4 -18 33 -49 64 l -56 56 l -59 -56 z" stroke-linecap="round"/>
</g>
</svg>