<svg xmlns="http://www.w3.org/2000/svg" width="170" height="52" viewBox="0 0 170 52" fill="none"><path d="M66.8 27.8L57.94 15.18H57.86V23.78C57.86 24.4467 57.88 24.9733 57.92 25.36C57.9733 25.7467 58.0733 26.0467 58.22 26.26C58.38 26.4733 58.5933 26.6133 58.86 26.68C59.14 26.7467 59.5 26.7867 59.94 26.8V27.6H54V26.8C54.4933 26.7867 54.8867 26.7467 55.18 26.68C55.4867 26.6 55.72 26.46 55.88 26.26C56.0533 26.06 56.1667 25.78 56.22 25.42C56.2733 25.0467 56.3 24.5467 56.3 23.92V15.88C56.3 15.32 56.2733 14.86 56.22 14.5C56.1667 14.1267 56.0667 13.8333 55.92 13.62C55.7733 13.4067 55.56 13.26 55.28 13.18C55.0133 13.0867 54.6533 13.0267 54.2 13V12.2H59.78L67.84 23.76H67.92V16.02C67.92 15.3667 67.8933 14.8467 67.84 14.46C67.8 14.06 67.7 13.7533 67.54 13.54C67.3933 13.3267 67.18 13.1867 66.9 13.12C66.6333 13.0533 66.28 13.0133 65.84 13V12.2H71.78V13C71.2867 13.0133 70.8867 13.06 70.58 13.14C70.2867 13.2067 70.0533 13.34 69.88 13.54C69.72 13.74 69.6133 14.0267 69.56 14.4C69.5067 14.7733 69.48 15.2667 69.48 15.88V27.8H66.8Z" fill="#526E3E"></path><path d="M83.9552 22.94H78.2952C77.6685 24.3533 77.3552 25.3333 77.3552 25.88C77.3552 26.28 77.5018 26.5333 77.7952 26.64C78.1018 26.7467 78.5552 26.8 79.1552 26.8V27.6H73.6752V26.8C73.9952 26.76 74.2685 26.7067 74.4952 26.64C74.7352 26.5733 74.9418 26.48 75.1152 26.36C75.3018 26.24 75.4618 26.0867 75.5952 25.9C75.7285 25.7 75.8552 25.46 75.9752 25.18L81.2352 12H82.7152L87.4952 23.68C87.7752 24.36 88.0085 24.8933 88.1952 25.28C88.3952 25.6667 88.6018 25.9667 88.8152 26.18C89.0418 26.38 89.2952 26.52 89.5752 26.6C89.8685 26.68 90.2418 26.74 90.6952 26.78V27.6H83.1352V26.78C83.7752 26.7533 84.2352 26.6867 84.5152 26.58C84.7952 26.4733 84.9352 26.26 84.9352 25.94C84.9352 25.7533 84.8885 25.5133 84.7952 25.22C84.7018 24.9267 84.5752 24.5667 84.4152 24.14L83.9552 22.94ZM78.7552 21.74H83.5152L81.2152 15.68H81.1352L78.7552 21.74Z" fill="#526E3E"></path><path d="M106.903 16.6H106.043C106.003 15.9467 105.903 15.4067 105.743 14.98C105.596 14.54 105.383 14.1933 105.103 13.94C104.823 13.6733 104.483 13.4933 104.083 13.4C103.683 13.2933 103.216 13.24 102.683 13.24C102.163 13.24 101.743 13.2533 101.423 13.28C101.116 13.2933 100.876 13.3267 100.703 13.38C100.543 13.42 100.436 13.48 100.383 13.56C100.33 13.64 100.303 13.74 100.303 13.86V24.34C100.303 24.7667 100.33 25.1333 100.383 25.44C100.45 25.7467 100.576 26 100.763 26.2C100.95 26.3867 101.223 26.5333 101.583 26.64C101.943 26.7333 102.416 26.7867 103.003 26.8V27.6H94.6231V26.8C95.2231 26.7867 95.7031 26.7333 96.0631 26.64C96.4231 26.5333 96.6965 26.3867 96.8831 26.2C97.0831 26 97.2098 25.7467 97.2631 25.44C97.3298 25.1333 97.3631 24.7667 97.3631 24.34V13.86C97.3631 13.74 97.3365 13.64 97.2831 13.56C97.2431 13.48 97.1498 13.42 97.0031 13.38C96.8565 13.3267 96.6431 13.2933 96.3631 13.28C96.0965 13.2533 95.7431 13.24 95.3031 13.24C94.8231 13.24 94.3631 13.2667 93.9231 13.32C93.4831 13.36 93.0965 13.4933 92.7631 13.72C92.4298 13.9333 92.1565 14.2667 91.9431 14.72C91.7431 15.16 91.6365 15.7867 91.6231 16.6H90.8431L91.0431 12.2H106.703L106.903 16.6Z" fill="#526E3E"></path><path d="M124.286 21.4C124.286 22.5333 124.159 23.5067 123.906 24.32C123.666 25.12 123.286 25.78 122.766 26.3C122.246 26.82 121.573 27.2 120.746 27.44C119.933 27.68 118.953 27.8 117.806 27.8C115.659 27.8 114.086 27.3533 113.086 26.46C112.099 25.5533 111.606 24.1133 111.606 22.14V16.66C111.606 16.14 111.599 15.7067 111.586 15.36C111.573 15 111.553 14.7 111.526 14.46C111.499 14.22 111.459 14.0267 111.406 13.88C111.366 13.72 111.313 13.5867 111.246 13.48C111.126 13.2933 110.953 13.1667 110.726 13.1C110.499 13.0333 110.153 13 109.686 13V12.2H116.866V13C116.306 13 115.893 13.0333 115.626 13.1C115.359 13.1533 115.153 13.2667 115.006 13.44C114.913 13.5467 114.833 13.68 114.766 13.84C114.713 13.9867 114.666 14.1867 114.626 14.44C114.599 14.68 114.579 14.98 114.566 15.34C114.553 15.7 114.546 16.14 114.546 16.66V21.9C114.546 23.42 114.866 24.5467 115.506 25.28C116.159 26 117.159 26.36 118.506 26.36C121.253 26.36 122.626 24.8333 122.626 21.78V17.16C122.626 16.6 122.613 16.12 122.586 15.72C122.573 15.32 122.539 14.98 122.486 14.7C122.446 14.42 122.386 14.1867 122.306 14C122.239 13.8133 122.153 13.66 122.046 13.54C121.859 13.3533 121.619 13.22 121.326 13.14C121.033 13.0467 120.626 13 120.106 13V12.2H126.586V13C126.093 13 125.713 13.04 125.446 13.12C125.179 13.1867 124.973 13.3133 124.826 13.5C124.719 13.62 124.633 13.78 124.566 13.98C124.499 14.1667 124.446 14.4067 124.406 14.7C124.366 14.98 124.333 15.32 124.306 15.72C124.293 16.12 124.286 16.6 124.286 17.16V21.4Z" fill="#526E3E"></path><path d="M142.644 16.06C142.644 17.1667 142.324 18.0933 141.684 18.84C141.044 19.5867 140.024 20.0867 138.624 20.34L143.264 25.66C143.584 26.0333 143.964 26.32 144.404 26.52C144.844 26.7067 145.29 26.8 145.744 26.8V27.6H141.004L136.044 21.52C135.71 21.12 135.417 20.8533 135.164 20.72C134.924 20.5733 134.697 20.5 134.484 20.5V24.42C134.484 24.9133 134.517 25.32 134.584 25.64C134.65 25.9467 134.784 26.1867 134.984 26.36C135.184 26.5333 135.47 26.6533 135.844 26.72C136.23 26.7733 136.744 26.8 137.384 26.8V27.6H129.444V26.8C129.884 26.8 130.237 26.7733 130.504 26.72C130.784 26.6533 130.997 26.54 131.144 26.38C131.304 26.2067 131.41 25.9733 131.464 25.68C131.517 25.3733 131.544 24.9867 131.544 24.52V15.28C131.544 14.8133 131.524 14.44 131.484 14.16C131.444 13.8667 131.357 13.64 131.224 13.48C131.09 13.3067 130.897 13.1933 130.644 13.14C130.404 13.0733 130.077 13.0267 129.664 13V12.2H136.584C138.517 12.2 140.01 12.54 141.064 13.22C142.117 13.9 142.644 14.8467 142.644 16.06ZM134.484 19.3H135.784C137.037 19.3 137.97 19.06 138.584 18.58C139.21 18.0867 139.524 17.28 139.524 16.16C139.524 15.3067 139.264 14.62 138.744 14.1C138.224 13.58 137.504 13.32 136.584 13.32H134.844C134.604 13.32 134.484 13.4333 134.484 13.66V19.3Z" fill="#526E3E"></path><path d="M154.912 27.6H147.772V26.8C148.226 26.7867 148.586 26.7467 148.852 26.68C149.132 26.6 149.346 26.46 149.492 26.26C149.639 26.06 149.739 25.78 149.792 25.42C149.846 25.0467 149.872 24.5467 149.872 23.92V15.88C149.872 15.32 149.846 14.86 149.792 14.5C149.752 14.1267 149.666 13.8333 149.532 13.62C149.399 13.4067 149.206 13.26 148.952 13.18C148.712 13.0867 148.386 13.0267 147.972 13V12.2H154.712V13C154.299 13.0267 153.966 13.0867 153.712 13.18C153.472 13.26 153.286 13.4067 153.152 13.62C153.019 13.8333 152.926 14.1267 152.872 14.5C152.832 14.86 152.812 15.32 152.812 15.88V23.92C152.812 24.5467 152.832 25.0467 152.872 25.42C152.926 25.78 153.026 26.06 153.172 26.26C153.332 26.46 153.546 26.6 153.812 26.68C154.092 26.7467 154.459 26.7867 154.912 26.8V27.6Z" fill="#526E3E"></path><path d="M158.707 22.5H159.487C159.673 23.7667 160.18 24.7667 161.007 25.5C161.833 26.22 162.853 26.58 164.067 26.58C164.56 26.58 165.013 26.52 165.427 26.4C165.84 26.28 166.193 26.1133 166.487 25.9C166.78 25.6733 167.007 25.4133 167.167 25.12C167.327 24.8133 167.407 24.4733 167.407 24.1C167.407 23.78 167.353 23.5067 167.247 23.28C167.153 23.04 166.967 22.8133 166.687 22.6C166.407 22.3733 166.02 22.1467 165.527 21.92C165.047 21.6933 164.42 21.4333 163.647 21.14C162.087 20.54 160.933 19.8467 160.187 19.06C159.44 18.26 159.067 17.32 159.067 16.24C159.067 15.6133 159.187 15.04 159.427 14.52C159.667 14 160 13.5533 160.427 13.18C160.867 12.8067 161.387 12.52 161.987 12.32C162.6 12.1067 163.273 12 164.007 12C164.687 12 165.327 12.1067 165.927 12.32C166.527 12.5333 167.12 12.8533 167.707 13.28L168.067 12.28H168.547L168.767 16.6H167.987C167.667 15.5067 167.167 14.6733 166.487 14.1C165.807 13.5133 165.02 13.22 164.127 13.22C163.3 13.22 162.627 13.4267 162.107 13.84C161.6 14.24 161.347 14.76 161.347 15.4C161.347 15.68 161.393 15.9333 161.487 16.16C161.58 16.3733 161.753 16.58 162.007 16.78C162.26 16.98 162.607 17.1867 163.047 17.4C163.487 17.6 164.053 17.8267 164.747 18.08C165.68 18.44 166.473 18.8067 167.127 19.18C167.793 19.54 168.333 19.9333 168.747 20.36C169.173 20.7733 169.487 21.2133 169.687 21.68C169.887 22.1467 169.987 22.66 169.987 23.22C169.987 23.9 169.84 24.52 169.547 25.08C169.253 25.64 168.84 26.12 168.307 26.52C167.787 26.92 167.16 27.2333 166.427 27.46C165.707 27.6867 164.907 27.8 164.027 27.8C163.227 27.8 162.507 27.6933 161.867 27.48C161.227 27.2533 160.567 26.8933 159.887 26.4L159.487 27.6H159.007L158.707 22.5Z" fill="#526E3E"></path><path d="M54.738 34.156H56.151L58.743 38.476H58.815L58.743 37.234V34.156H59.949V40.6H58.671L55.935 36.037H55.863L55.935 37.279V40.6H54.738V34.156ZM64.1267 34.156H65.5217L67.9427 40.6H66.6017L66.0617 39.061H63.5957L63.0557 40.6H61.7147L64.1267 34.156ZM65.6657 37.945L65.0987 36.325L64.8647 35.551H64.7927L64.5587 36.325L63.9827 37.945H65.6657ZM70.4289 35.308H68.6289V34.156H73.4439V35.308H71.6439V40.6H70.4289V35.308ZM77.7 40.744C77.196 40.744 76.755 40.636 76.377 40.42C76.005 40.204 75.714 39.892 75.504 39.484C75.3 39.076 75.198 38.593 75.198 38.035V34.156H76.404V38.107C76.404 38.551 76.515 38.911 76.737 39.187C76.965 39.457 77.286 39.592 77.7 39.592C78.114 39.592 78.432 39.457 78.654 39.187C78.882 38.911 78.996 38.551 78.996 38.107V34.156H80.202V38.035C80.202 38.569 80.1 39.04 79.896 39.448C79.692 39.856 79.401 40.174 79.023 40.402C78.645 40.63 78.204 40.744 77.7 40.744ZM82.464 34.156H84.813C85.233 34.156 85.605 34.243 85.929 34.417C86.259 34.591 86.514 34.834 86.694 35.146C86.874 35.452 86.964 35.8 86.964 36.19C86.964 36.604 86.832 36.973 86.568 37.297C86.31 37.615 85.983 37.846 85.587 37.99L85.578 38.053L87.306 40.528V40.6H85.911L84.246 38.179H83.679V40.6H82.464V34.156ZM84.804 37.063C85.08 37.063 85.305 36.979 85.479 36.811C85.653 36.643 85.74 36.43 85.74 36.172C85.74 35.926 85.656 35.716 85.488 35.542C85.326 35.368 85.104 35.281 84.822 35.281H83.679V37.063H84.804ZM89.0681 34.156H93.1541V35.308H90.2831V36.802H92.8661V37.954H90.2831V39.448H93.1541V40.6H89.0681V34.156ZM98.3124 34.156H100.832C101.192 34.156 101.522 34.231 101.822 34.381C102.128 34.531 102.368 34.735 102.542 34.993C102.716 35.251 102.803 35.533 102.803 35.839C102.803 36.163 102.722 36.445 102.56 36.685C102.404 36.919 102.197 37.099 101.939 37.225V37.297C102.275 37.417 102.542 37.609 102.74 37.873C102.938 38.131 103.037 38.443 103.037 38.809C103.037 39.163 102.941 39.478 102.749 39.754C102.563 40.024 102.308 40.234 101.984 40.384C101.666 40.528 101.312 40.6 100.922 40.6H98.3124V34.156ZM100.742 36.784C101.006 36.784 101.216 36.712 101.372 36.568C101.534 36.418 101.615 36.232 101.615 36.01C101.615 35.794 101.537 35.614 101.381 35.47C101.231 35.32 101.03 35.245 100.778 35.245H99.5274V36.784H100.742ZM100.877 39.493C101.171 39.493 101.399 39.418 101.561 39.268C101.729 39.112 101.813 38.911 101.813 38.665C101.813 38.419 101.729 38.218 101.561 38.062C101.393 37.906 101.153 37.828 100.841 37.828H99.5274V39.493H100.877ZM108.082 40.744C107.452 40.744 106.879 40.597 106.363 40.303C105.853 40.003 105.451 39.595 105.157 39.079C104.863 38.563 104.716 37.996 104.716 37.378C104.716 36.76 104.863 36.193 105.157 35.677C105.451 35.161 105.853 34.756 106.363 34.462C106.879 34.162 107.452 34.012 108.082 34.012C108.712 34.012 109.282 34.162 109.792 34.462C110.308 34.756 110.713 35.161 111.007 35.677C111.301 36.193 111.448 36.76 111.448 37.378C111.448 37.996 111.301 38.563 111.007 39.079C110.713 39.595 110.308 40.003 109.792 40.303C109.282 40.597 108.712 40.744 108.082 40.744ZM108.082 39.592C108.478 39.592 108.841 39.499 109.171 39.313C109.501 39.127 109.759 38.866 109.945 38.53C110.137 38.194 110.233 37.81 110.233 37.378C110.233 36.946 110.137 36.562 109.945 36.226C109.759 35.89 109.501 35.629 109.171 35.443C108.841 35.257 108.478 35.164 108.082 35.164C107.686 35.164 107.323 35.257 106.993 35.443C106.669 35.629 106.411 35.89 106.219 36.226C106.033 36.562 105.94 36.946 105.94 37.378C105.94 37.81 106.033 38.194 106.219 38.53C106.411 38.866 106.669 39.127 106.993 39.313C107.323 39.499 107.686 39.592 108.082 39.592ZM115.883 40.744C115.379 40.744 114.938 40.636 114.56 40.42C114.188 40.204 113.897 39.892 113.687 39.484C113.483 39.076 113.381 38.593 113.381 38.035V34.156H114.587V38.107C114.587 38.551 114.698 38.911 114.92 39.187C115.148 39.457 115.469 39.592 115.883 39.592C116.297 39.592 116.615 39.457 116.837 39.187C117.065 38.911 117.179 38.551 117.179 38.107V34.156H118.385V38.035C118.385 38.569 118.283 39.04 118.079 39.448C117.875 39.856 117.584 40.174 117.206 40.402C116.828 40.63 116.387 40.744 115.883 40.744ZM121.952 35.308H120.152V34.156H124.967V35.308H123.167V40.6H121.952V35.308ZM126.838 34.156H128.053V40.6H126.838V34.156ZM134.768 40.456C134.318 40.648 133.853 40.744 133.373 40.744C132.743 40.744 132.17 40.597 131.654 40.303C131.144 40.003 130.742 39.595 130.448 39.079C130.154 38.563 130.007 37.996 130.007 37.378C130.007 36.76 130.154 36.193 130.448 35.677C130.742 35.161 131.144 34.756 131.654 34.462C132.17 34.162 132.743 34.012 133.373 34.012C134.003 34.012 134.573 34.162 135.083 34.462C135.599 34.756 136.004 35.161 136.298 35.677C136.592 36.193 136.739 36.76 136.739 37.378C136.739 37.87 136.646 38.329 136.46 38.755C136.274 39.181 136.013 39.55 135.677 39.862L136.172 40.6L135.272 41.203L134.768 40.456ZM133.373 39.592C133.607 39.592 133.85 39.547 134.102 39.457L133.4 38.404L134.3 37.792L135.002 38.854C135.17 38.668 135.299 38.449 135.389 38.197C135.479 37.945 135.524 37.672 135.524 37.378C135.524 36.946 135.428 36.562 135.236 36.226C135.05 35.89 134.792 35.629 134.462 35.443C134.132 35.257 133.769 35.164 133.373 35.164C132.977 35.164 132.614 35.257 132.284 35.443C131.96 35.629 131.702 35.89 131.51 36.226C131.324 36.562 131.231 36.946 131.231 37.378C131.231 37.81 131.324 38.194 131.51 38.53C131.702 38.866 131.96 39.127 132.284 39.313C132.614 39.499 132.977 39.592 133.373 39.592ZM141.175 40.744C140.671 40.744 140.23 40.636 139.852 40.42C139.48 40.204 139.189 39.892 138.979 39.484C138.775 39.076 138.673 38.593 138.673 38.035V34.156H139.879V38.107C139.879 38.551 139.99 38.911 140.212 39.187C140.44 39.457 140.761 39.592 141.175 39.592C141.589 39.592 141.907 39.457 142.129 39.187C142.357 38.911 142.471 38.551 142.471 38.107V34.156H143.677V38.035C143.677 38.569 143.575 39.04 143.371 39.448C143.167 39.856 142.876 40.174 142.498 40.402C142.12 40.63 141.679 40.744 141.175 40.744ZM145.939 34.156H150.025V35.308H147.154V36.802H149.737V37.954H147.154V39.448H150.025V40.6H145.939V34.156Z" fill="#75846E"></path><path fill-rule="evenodd" clip-rule="evenodd" d="M22.7486 49.633C21.7774 46.1763 21.8521 42.6445 22.786 39.4509C20.0218 30.8092 10.87 26.0751 2.35331 28.6301C2.39066 29.6069 2.46537 30.5462 2.65214 31.4856C11.3183 28.4798 20.8062 34.9046 20.8062 44.5607C20.8062 46.1763 20.5074 47.7919 19.9844 49.2948C20.8809 49.4451 21.8148 49.5578 22.7486 49.633ZM33.1704 14.2023C34.9261 15.7803 37.7276 15.1792 38.6988 13C36.9058 11.3844 34.1043 11.9855 33.1704 14.2023ZM42.3969 4.62139C40.2304 5.59827 39.6327 8.41619 41.2016 10.1821C43.3681 9.2052 43.9658 6.38728 42.3969 4.62139ZM28.7626 10.5954C30.8171 11.7977 33.4319 10.5954 33.9175 8.2659C31.863 7.06358 29.2109 8.22832 28.7626 10.5954ZM25.1019 2.55491C25.5502 4.92197 28.2023 6.12428 30.2568 4.95954C29.8086 2.59249 27.1938 1.3526 25.1019 2.55491ZM35.5237 0C33.5813 1.39017 33.5813 4.28324 35.5237 5.67341C37.4288 4.28324 37.4288 1.39017 35.5237 0ZM14.8669 14.2023C13.0739 15.7803 10.2724 15.1792 9.33852 13C11.0942 11.3844 13.8957 11.9855 14.8669 14.2023ZM5.64047 4.62139C7.807 5.59827 8.40467 8.41619 6.8358 10.1821C4.66926 9.2052 4.03424 6.38728 5.64047 4.62139ZM19.2747 10.5954C17.2202 11.7977 14.6054 10.5954 14.1198 8.2659C16.1743 7.06358 18.7891 8.22832 19.2747 10.5954ZM22.8981 2.55491C22.4498 4.92197 19.7977 6.12428 17.7432 4.95954C18.2288 2.59249 20.8436 1.3526 22.8981 2.55491ZM12.5136 0C14.456 1.39017 14.456 4.28324 12.5136 5.67341C10.5712 4.28324 10.5712 1.39017 12.5136 0ZM21.7774 20.026H23.2716C23.421 20.026 23.5704 20.1763 23.5704 20.3266V21.8295C23.5704 21.9798 23.421 22.1301 23.2716 22.1301H21.7774C21.628 22.1301 21.4786 21.9798 21.4786 21.8295V20.3266C21.516 20.1387 21.628 20.026 21.7774 20.026ZM24.7284 22.9191H26.2226C26.372 22.9191 26.5214 23.0694 26.5214 23.2197V24.7225C26.5214 24.8728 26.372 25.0231 26.2226 25.0231H24.7284C24.579 25.0231 24.4296 24.8728 24.4296 24.7225V23.2197C24.4296 23.0694 24.5416 22.9191 24.7284 22.9191ZM21.7774 22.9191H23.2716C23.421 22.9191 23.5704 23.0694 23.5704 23.2197V24.7225C23.5704 24.8728 23.421 25.0231 23.2716 25.0231H21.7774C21.628 25.0231 21.4786 24.8728 21.4786 24.7225V23.2197C21.516 23.0694 21.628 22.9191 21.7774 22.9191ZM24.7284 20.026H26.2226C26.372 20.026 26.5214 20.1763 26.5214 20.3266V21.8295C26.5214 21.9798 26.372 22.1301 26.2226 22.1301H24.7284C24.579 22.1301 24.4296 21.9798 24.4296 21.8295V20.3266C24.4296 20.1387 24.5416 20.026 24.7284 20.026ZM2.39066 26.1879C6.61167 25.0983 10.9447 25.5491 14.6802 27.2399V24.1965C14.6802 23.3699 14.4934 23.3699 13.8957 23.3699C12.9619 23.3699 11.4677 23.4451 11.0568 22.3179C10.7953 21.5289 11.2809 20.815 12.5136 19.7254L17.2576 15.5549C23.6451 9.91908 24.1681 9.80636 30.6677 15.5549L35.3743 19.7254C36.607 20.815 37.13 21.5289 36.8311 22.3179C36.4576 23.4827 35.0008 23.3699 33.9922 23.3699C33.3946 23.3699 33.2078 23.3699 33.2078 24.1965V27.2023C37.0179 25.5116 41.3883 25.0983 45.5346 26.1879C45.1984 21.4538 43.4428 17.4335 41.2389 14.2399C37.1673 8.34104 31.4895 5.29769 31.4895 5.29769C33.4319 5.78613 38.7735 8.34104 42.7704 13.1879C45.8708 16.9075 48 22.1301 48 27.8786C48 41.2168 37.242 52 24.0187 52C10.758 52 0 41.2168 0 27.8786C0 22.0925 2.16654 16.9075 5.22957 13.1879C9.22646 8.34104 14.6054 5.78613 16.5105 5.29769C16.5105 5.29769 10.8327 8.30347 6.64903 14.2399C4.48249 17.4335 2.72685 21.4538 2.39066 26.1879ZM45.684 28.6301C35.2623 25.474 24.4296 33.289 24.4296 44.5607C24.4296 46.3266 24.691 47.9798 25.214 49.633C26.1852 49.5954 27.1191 49.4827 28.0529 49.2948C24.8405 40.5405 31.228 30.7717 40.9401 30.7717C42.4716 30.7717 43.9658 31.0347 45.3852 31.5231C45.5346 30.5838 45.6467 29.6069 45.684 28.6301ZM3.13774 33.815C3.39922 34.7168 3.69805 35.6185 4.0716 36.4827C9.48794 34.4162 15.6514 38.4364 15.6514 44.5607C15.6514 45.6503 15.4272 46.7399 15.0537 47.7168C15.9128 48.0925 16.772 48.4306 17.6685 48.7312C20.5074 41.4422 15.2405 33.1012 7.05992 33.1012C5.71517 33.1012 4.40778 33.3642 3.13774 33.815ZM5.11751 38.5867C6.98521 41.8931 9.71206 44.6734 12.9619 46.6272C14.6428 41.8179 10.123 36.9711 5.11751 38.5867ZM30.3315 48.7312C31.228 48.4682 32.1245 48.1301 32.9463 47.7543C30.7798 42.2688 34.7019 35.9566 40.9401 35.9566C41.986 35.9566 42.9946 36.1445 43.9284 36.4827C44.3019 35.6185 44.6008 34.7168 44.8623 33.815C37.6156 31.1098 29.5471 36.4451 29.5471 44.5607C29.5471 45.9884 29.8086 47.4162 30.3315 48.7312ZM35.0381 46.6272C38.2879 44.6734 41.0148 41.8931 42.8825 38.5867C38.0265 36.9711 33.3198 41.7052 35.0381 46.6272ZM17.0335 28.4798C19.9844 30.3208 22.4125 32.9509 24.0187 36.2572C25.5502 33.1012 27.9409 30.396 30.9665 28.4798V24.1965C30.9665 21.3786 31.5642 21.078 33.3946 21.0405L29.1735 17.3208C23.6825 12.474 24.3549 12.474 18.8638 17.3208L14.6054 21.0405C16.4358 21.078 17.0335 21.3786 17.0335 24.1965V28.4798Z" fill="#526E3E"></path></svg>